<svg width="20" height="20" viewBox="0 0 20 20" fill="none" xmlns="http://www.w3.org/2000/svg">
<path d="M10 0C8.02219 0 6.08879 0.58649 4.4443 1.6853C2.79981 2.78412 1.51809 4.3459 0.761209 6.17316C0.00433281 8.00043 -0.1937 10.0111 0.192152 11.9509C0.578004 13.8907 1.53041 15.6725 2.92894 17.0711C4.32746 18.4696 6.10929 19.422 8.0491 19.8078C9.98891 20.1937 11.9996 19.9957 13.8268 19.2388C15.6541 18.4819 17.2159 17.2002 18.3147 15.5557C19.4135 13.9112 20 11.9778 20 10C20 7.34783 18.9464 4.8043 17.0711 2.92893C15.1957 1.05357 12.6522 0 10 0ZM14.7813 13.4937C14.1563 15.3687 12.525 15.8937 11.0938 15.9937V17.2437C11.0938 17.4509 11.0114 17.6497 10.8649 17.7962C10.7184 17.9427 10.5197 18.025 10.3125 18.025C10.1053 18.025 9.90659 17.9427 9.76008 17.7962C9.61356 17.6497 9.53125 17.4509 9.53125 17.2437V15.9937C8.09603 15.8592 6.73472 15.295 5.625 14.375C5.5499 14.3048 5.48936 14.2205 5.44683 14.127C5.40431 14.0334 5.38062 13.9324 5.37714 13.8296C5.37366 13.7269 5.39044 13.6245 5.42654 13.5283C5.46263 13.432 5.51733 13.3438 5.5875 13.2687C5.65768 13.1936 5.74196 13.1331 5.83553 13.0906C5.9291 13.048 6.03014 13.0244 6.13286 13.0209C6.23559 13.0174 6.33799 13.0342 6.43423 13.0703C6.53047 13.1064 6.61865 13.1611 6.69375 13.2312C7.51154 13.8902 8.49582 14.3099 9.5375 14.4437V10.5187C8.7073 10.3914 7.91309 10.0912 7.20625 9.6375C6.61186 9.26472 6.16693 8.69539 5.94883 8.02853C5.73073 7.36168 5.75326 6.63947 6.0125 5.9875C6.38125 5.04375 7.525 3.96875 9.5375 3.79375V2.65625C9.5375 2.44905 9.61981 2.25034 9.76633 2.10382C9.91284 1.95731 10.1116 1.875 10.3188 1.875C10.526 1.875 10.7247 1.95731 10.8712 2.10382C11.0177 2.25034 11.1 2.44905 11.1 2.65625V3.81875C12.2172 3.94252 13.2778 4.3754 14.1625 5.06875C14.2851 5.21302 14.3512 5.39692 14.3484 5.58625C14.3456 5.77557 14.2741 5.95744 14.1473 6.09803C14.0205 6.23861 13.8469 6.32836 13.6588 6.35056C13.4708 6.37277 13.2811 6.32593 13.125 6.21875C12.5282 5.7823 11.8324 5.50096 11.1 5.4V9.23125C11.475 9.3125 11.875 9.4 12.2938 9.53125C12.7781 9.65203 13.2326 9.87071 13.6293 10.1738C14.0259 10.477 14.3563 10.8581 14.6 11.2937C14.9481 11.9745 15.0132 12.7652 14.7813 13.4937Z" fill="#22D426"/>
<path d="M11.825 11.025C11.575 10.95 11.3312 10.8875 11.0938 10.8375V14.4375C12.3437 14.3125 13.0125 13.875 13.3 13C13.3958 12.6709 13.3623 12.3177 13.2062 12.0125C13.0535 11.7642 12.8525 11.5489 12.6153 11.3793C12.3781 11.2097 12.1094 11.0893 11.825 11.025Z" fill="#22D426"/>
<path d="M7.46185 6.55C7.33143 6.87401 7.32289 7.23431 7.43781 7.56413C7.55273 7.89396 7.78332 8.17094 8.08685 8.34375C8.5285 8.62728 9.02091 8.82254 9.53685 8.91875V5.34375C8.22435 5.5 7.6181 6.15 7.46185 6.55Z" fill="#22D426"/>
</svg>
