<svg width="24" height="20" viewBox="0 0 24 20" fill="none" xmlns="http://www.w3.org/2000/svg">
<path d="M19.2775 18.3372C20.365 18.3102 21.3989 17.8592 22.1584 17.0804C22.9179 16.3016 23.3428 15.2567 23.3425 14.1689V10.0006C23.3425 9.55838 23.1668 9.13428 22.8541 8.8216C22.5415 8.50892 22.1174 8.33325 21.6752 8.33325H16.6732C16.231 8.33325 15.8069 8.50892 15.4942 8.8216C15.1815 9.13428 15.0059 9.55838 15.0059 10.0006V14.1689C15.0057 14.7251 15.1168 15.2757 15.3327 15.7883C15.5487 16.3009 15.865 16.765 16.263 17.1535C16.6611 17.5419 17.1329 17.8468 17.6506 18.0501C18.1684 18.2534 18.7215 18.351 19.2775 18.3372Z" fill="url(#paint0_linear_2158_343)"/>
<path d="M19.2775 18.3372C20.365 18.3102 21.3989 17.8592 22.1584 17.0804C22.9179 16.3016 23.3428 15.2567 23.3425 14.1689V10.0006C23.3425 9.55838 23.1668 9.13428 22.8541 8.8216C22.5415 8.50892 22.1174 8.33325 21.6752 8.33325H16.6732C16.231 8.33325 15.8069 8.50892 15.4942 8.8216C15.1815 9.13428 15.0059 9.55838 15.0059 10.0006V14.1689C15.0057 14.7251 15.1168 15.2757 15.3327 15.7883C15.5487 16.3009 15.865 16.765 16.263 17.1535C16.6611 17.5419 17.1329 17.8468 17.6506 18.0501C18.1684 18.2534 18.7215 18.351 19.2775 18.3372Z" fill="url(#paint1_radial_2158_343)" fill-opacity="0.5"/>
<path d="M4.27169 18.3372C5.35918 18.3102 6.39304 17.8592 7.15253 17.0804C7.91202 16.3016 8.33696 15.2567 8.33663 14.1689V10.0006C8.33663 9.55838 8.16096 9.13428 7.84828 8.8216C7.53559 8.50892 7.1115 8.33325 6.6693 8.33325H1.66733C1.22512 8.33325 0.801033 8.50892 0.488348 8.8216C0.175664 9.13428 1.97177e-07 9.55838 1.97177e-07 10.0006V14.1689C-0.000170872 14.7251 0.110974 15.2757 0.326886 15.7883C0.542798 16.3009 0.85911 16.765 1.25719 17.1535C1.65527 17.5419 2.12706 17.8468 2.64478 18.0501C3.16249 18.2534 3.71566 18.351 4.27169 18.3372Z" fill="url(#paint2_linear_2158_343)"/>
<path d="M4.27169 18.3372C5.35918 18.3102 6.39304 17.8592 7.15253 17.0804C7.91202 16.3016 8.33696 15.2567 8.33663 14.1689V10.0006C8.33663 9.55838 8.16096 9.13428 7.84828 8.8216C7.53559 8.50892 7.1115 8.33325 6.6693 8.33325H1.66733C1.22512 8.33325 0.801033 8.50892 0.488348 8.8216C0.175664 9.13428 1.97177e-07 9.55838 1.97177e-07 10.0006V14.1689C-0.000170872 14.7251 0.110974 15.2757 0.326886 15.7883C0.542798 16.3009 0.85911 16.765 1.25719 17.1535C1.65527 17.5419 2.12706 17.8468 2.64478 18.0501C3.16249 18.2534 3.71566 18.351 4.27169 18.3372Z" fill="url(#paint3_radial_2158_343)" fill-opacity="0.5"/>
<path d="M6.66895 9.98891C6.67203 9.54873 6.84905 9.12763 7.1614 8.81747C7.47375 8.5073 7.89608 8.33324 8.33627 8.33325H15.0056C15.4478 8.33325 15.8719 8.50892 16.1845 8.8216C16.4972 9.13428 16.6729 9.55838 16.6729 10.0006V15.0026C16.6733 15.5273 16.5912 16.0489 16.4295 16.5482C16.0603 17.6798 15.2998 18.6427 14.2845 19.2641C13.2692 19.8854 12.0657 20.1245 10.89 19.9383C9.71432 19.7521 8.64353 19.1529 7.86989 18.2483C7.09625 17.3437 6.67045 16.1929 6.66895 15.0026V9.98891Z" fill="url(#paint4_linear_2158_343)"/>
<path d="M6.66895 9.98891C6.67203 9.54873 6.84905 9.12763 7.1614 8.81747C7.47375 8.5073 7.89608 8.33324 8.33627 8.33325H15.0056C15.4478 8.33325 15.8719 8.50892 16.1845 8.8216C16.4972 9.13428 16.6729 9.55838 16.6729 10.0006V15.0026C16.6733 15.5273 16.5912 16.0489 16.4295 16.5482C16.0603 17.6798 15.2998 18.6427 14.2845 19.2641C13.2692 19.8854 12.0657 20.1245 10.89 19.9383C9.71432 19.7521 8.64353 19.1529 7.86989 18.2483C7.09625 17.3437 6.67045 16.1929 6.66895 15.0026V9.98891Z" fill="url(#paint5_linear_2158_343)"/>
<path d="M19.1748 1.66406C18.5115 1.66406 17.8754 1.92756 17.4064 2.39658C16.9373 2.86561 16.6738 3.50175 16.6738 4.16505C16.6738 4.82835 16.9373 5.46449 17.4064 5.93352C17.8754 6.40254 18.5115 6.66604 19.1748 6.66604C19.8381 6.66604 20.4743 6.40254 20.9433 5.93352C21.4123 5.46449 21.6758 4.82835 21.6758 4.16505C21.6758 3.50175 21.4123 2.86561 20.9433 2.39658C20.4743 1.92756 19.8381 1.66406 19.1748 1.66406Z" fill="url(#paint6_linear_2158_343)"/>
<path d="M4.16896 1.66406C3.50565 1.66406 2.86952 1.92756 2.40049 2.39658C1.93146 2.86561 1.66797 3.50175 1.66797 4.16505C1.66797 4.82835 1.93146 5.46449 2.40049 5.93352C2.86952 6.40254 3.50565 6.66604 4.16896 6.66604C4.83226 6.66604 5.4684 6.40254 5.93742 5.93352C6.40645 5.46449 6.66994 4.82835 6.66994 4.16505C6.66994 3.50175 6.40645 2.86561 5.93742 2.39658C5.4684 1.92756 4.83226 1.66406 4.16896 1.66406Z" fill="url(#paint7_linear_2158_343)"/>
<path d="M11.6712 0C11.2337 -6.51888e-09 10.8005 0.0861669 10.3963 0.253581C9.99215 0.420996 9.62491 0.666378 9.31556 0.97572C9.00622 1.28506 8.76084 1.6523 8.59343 2.05648C8.42601 2.46065 8.33984 2.89384 8.33984 3.33132C8.33984 3.76879 8.42601 4.20198 8.59343 4.60616C8.76084 5.01033 9.00622 5.37757 9.31556 5.68691C9.62491 5.99625 9.99215 6.24164 10.3963 6.40905C10.8005 6.57646 11.2337 6.66263 11.6712 6.66263C12.5547 6.66263 13.402 6.31165 14.0268 5.68691C14.6515 5.06217 15.0025 4.21484 15.0025 3.33132C15.0025 2.4478 14.6515 1.60046 14.0268 0.97572C13.402 0.350977 12.5547 0 11.6712 0Z" fill="url(#paint8_linear_2158_343)"/>
<defs>
<linearGradient id="paint0_linear_2158_343" x1="16.9883" y1="9.66211" x2="22.4321" y2="16.9066" gradientUnits="userSpaceOnUse">
<stop offset="0.125" stop-color="#7A41DC"/>
<stop offset="1" stop-color="#5B2AB5"/>
</linearGradient>
<radialGradient id="paint1_radial_2158_343" cx="0" cy="0" r="1" gradientUnits="userSpaceOnUse" gradientTransform="translate(13.6953 13.1018) scale(6.70873 13.6581)">
<stop offset="0.433" stop-color="#3B148A"/>
<stop offset="1" stop-color="#3B148A" stop-opacity="0"/>
</radialGradient>
<linearGradient id="paint2_linear_2158_343" x1="1.98245" y1="9.66211" x2="7.42627" y2="16.9066" gradientUnits="userSpaceOnUse">
<stop offset="0.125" stop-color="#9C6CFE"/>
<stop offset="1" stop-color="#7A41DC"/>
</linearGradient>
<radialGradient id="paint3_radial_2158_343" cx="0" cy="0" r="1" gradientUnits="userSpaceOnUse" gradientTransform="translate(11.0377 13.1018) rotate(180) scale(7.42433 15.1149)">
<stop offset="0.433" stop-color="#3B148A"/>
<stop offset="1" stop-color="#3B148A" stop-opacity="0"/>
</radialGradient>
<linearGradient id="paint4_linear_2158_343" x1="9.04822" y1="9.88386" x2="15.3474" y2="18.5056" gradientUnits="userSpaceOnUse">
<stop offset="0.125" stop-color="#BD96FF"/>
<stop offset="1" stop-color="#9C6CFE"/>
</linearGradient>
<linearGradient id="paint5_linear_2158_343" x1="11.6709" y1="6.9427" x2="21.1697" y2="22.1554" gradientUnits="userSpaceOnUse">
<stop stop-color="#885EDB" stop-opacity="0"/>
<stop offset="1" stop-color="#E362F8"/>
</linearGradient>
<linearGradient id="paint6_linear_2158_343" x1="17.8626" y1="2.32933" x2="20.412" y2="6.39927" gradientUnits="userSpaceOnUse">
<stop offset="0.125" stop-color="#7A41DC"/>
<stop offset="1" stop-color="#5B2AB5"/>
</linearGradient>
<linearGradient id="paint7_linear_2158_343" x1="2.85677" y1="2.32933" x2="5.40611" y2="6.39927" gradientUnits="userSpaceOnUse">
<stop offset="0.125" stop-color="#9C6CFE"/>
<stop offset="1" stop-color="#7A41DC"/>
</linearGradient>
<linearGradient id="paint8_linear_2158_343" x1="9.9238" y1="0.88535" x2="13.3201" y2="6.30749" gradientUnits="userSpaceOnUse">
<stop offset="0.125" stop-color="#BD96FF"/>
<stop offset="1" stop-color="#9C6CFE"/>
</linearGradient>
</defs>
</svg>
