<svg width="20" height="20" viewBox="0 0 20 20" fill="none" xmlns="http://www.w3.org/2000/svg">
<path d="M19.8454 18.7685C19.9314 18.8827 19.9838 19.0187 19.9968 19.1611C20.0098 19.3035 19.9828 19.4467 19.9189 19.5746C19.855 19.7026 19.7567 19.8101 19.635 19.8853C19.5133 19.9604 19.3731 20.0001 19.2301 20H0.769203C0.626353 20 0.486325 19.9602 0.364809 19.8851C0.243294 19.81 0.145092 19.7026 0.0812072 19.5748C0.0173226 19.4471 -0.00972027 19.3041 0.00310848 19.1618C0.0159372 19.0196 0.0681309 18.8837 0.153841 18.7694C0.83502 17.8564 1.74327 17.1376 2.78836 16.6842C2.21548 16.1614 1.81406 15.4776 1.63682 14.7226C1.45957 13.9676 1.51476 13.1767 1.79516 12.4536C2.07555 11.7306 2.56805 11.1092 3.20799 10.671C3.84794 10.2328 4.60544 9.99833 5.38106 9.99833C6.15667 9.99833 6.91417 10.2328 7.55412 10.671C8.19406 11.1092 8.68656 11.7306 8.96695 12.4536C9.24735 13.1767 9.30255 13.9676 9.1253 14.7226C8.94805 15.4776 8.54664 16.1614 7.97375 16.6842C8.7278 17.01 9.41302 17.4763 9.99291 18.058C10.5728 17.4763 11.258 17.01 12.0121 16.6842C11.4392 16.1614 11.0378 15.4776 10.8605 14.7226C10.6833 13.9676 10.7385 13.1767 11.0189 12.4536C11.2993 11.7306 11.7918 11.1092 12.4317 10.671C13.0716 10.2328 13.8291 9.99833 14.6048 9.99833C15.3804 9.99833 16.1379 10.2328 16.7778 10.671C17.4178 11.1092 17.9103 11.7306 18.1907 12.4536C18.4711 13.1767 18.5263 13.9676 18.349 14.7226C18.1718 15.4776 17.7703 16.1614 17.1975 16.6842C18.2474 17.1351 19.1606 17.8538 19.8454 18.7685ZM0.307682 9.84785C0.388492 9.90845 0.480449 9.95254 0.578302 9.9776C0.676155 10.0027 0.777987 10.0082 0.877985 9.99394C0.977983 9.97965 1.07419 9.94582 1.16111 9.89436C1.24803 9.8429 1.32396 9.77483 1.38457 9.69403C1.85028 9.07315 2.45418 8.56922 3.14843 8.22214C3.84269 7.87505 4.60822 7.69436 5.38442 7.69436C6.16062 7.69436 6.92616 7.87505 7.62041 8.22214C8.31466 8.56922 8.91856 9.07315 9.38428 9.69403C9.45592 9.78955 9.54883 9.86707 9.65564 9.92047C9.76245 9.97387 9.88022 10.0017 9.99964 10.0017C10.1191 10.0017 10.2368 9.97387 10.3436 9.92047C10.4504 9.86707 10.5434 9.78955 10.615 9.69403C11.0807 9.07315 11.6846 8.56922 12.3789 8.22214C13.0731 7.87505 13.8387 7.69436 14.6149 7.69436C15.3911 7.69436 16.1566 7.87505 16.8508 8.22214C17.5451 8.56922 18.149 9.07315 18.6147 9.69403C18.6754 9.77483 18.7514 9.84289 18.8384 9.89432C18.9253 9.94576 19.0216 9.97956 19.1216 9.9938C19.2217 10.008 19.3235 10.0024 19.4214 9.97731C19.5193 9.95218 19.6113 9.90803 19.6921 9.84737C19.7729 9.7867 19.841 9.71072 19.8924 9.62375C19.9438 9.53679 19.9776 9.44054 19.9919 9.34051C20.0061 9.24048 20.0005 9.13863 19.9754 9.04076C19.9503 8.9429 19.9061 8.85094 19.8454 8.77014C19.1643 7.85734 18.256 7.13876 17.2109 6.68587C17.7838 6.16308 18.1852 5.47931 18.3625 4.72431C18.5397 3.96932 18.4845 3.17838 18.2041 2.45531C17.9237 1.73224 17.4312 1.11084 16.7913 0.672659C16.1513 0.234478 15.3938 0 14.6182 0C13.8426 0 13.0851 0.234478 12.4452 0.672659C11.8052 1.11084 11.3127 1.73224 11.0323 2.45531C10.7519 3.17838 10.6967 3.96932 10.874 4.72431C11.0512 5.47931 11.4526 6.16308 12.0255 6.68587C11.2715 7.01172 10.5863 7.47793 10.0064 8.05968C9.42648 7.47793 8.74126 7.01172 7.98721 6.68587C8.5601 6.16308 8.96151 5.47931 9.13876 4.72431C9.31601 3.96932 9.26081 3.17838 8.98041 2.45531C8.70002 1.73224 8.20753 1.11084 7.56758 0.672659C6.92763 0.234478 6.17014 0 5.39452 0C4.6189 0 3.8614 0.234478 3.22145 0.672659C2.58151 1.11084 2.08901 1.73224 1.80862 2.45531C1.52822 3.17838 1.47303 3.96932 1.65028 4.72431C1.82753 5.47931 2.22894 6.16308 2.80182 6.68587C1.75183 7.13722 0.83874 7.85626 0.153841 8.7711C0.0932331 8.8519 0.0491354 8.94385 0.0240658 9.04169C-0.00100373 9.13953 -0.00655417 9.24135 0.00773125 9.34133C0.0220167 9.44132 0.0558583 9.53751 0.107324 9.62442C0.158789 9.71133 0.226871 9.78725 0.307682 9.84785Z" fill="#DDAD00"/>
</svg>
